{
  "accessors": [
    {
      "bufferView": 2,
      "componentType": 5126,
      "count": 202,
      "max": [
        18.19019317626953,
        -9.112850189208984,
        21.110553741455078
      ],
      "min": [
        10.125114440917969,
        -16.616701126098633,
        18.313426971435547
      ],
      "type": "VEC3"
    },
    {
      "bufferView": 2,
      "byteOffset": 2424,
      "componentType": 5126,
      "count": 202,
      "max": [
        0.9961522817611694,
        0.9934744834899902,
        0.997492790222168
      ],
      "min": [
        -0.9830188751220703,
        -0.9957921504974365,
        -0.997753918170929
      ],
      "type": "VEC3"
    },
    {
      "bufferView": 1,
      "componentType": 5126,
      "count": 202,
      "max": [
        0.9588000178337097,
        0.9483000040054321
      ],
      "min": [
        0.040800001472234726,
        0.053599998354911804
      ],
      "type": "VEC2"
    },
    {
      "bufferView": 0,
      "componentType": 5125,
      "count": 1068,
      "type": "SCALAR"
    },
    {
      "bufferView": 2,
      "byteOffset": 4848,
      "componentType": 5126,
      "count": 202,
      "max": [
        -11.908681869506836,
        -3.6451773643493652,
        22.11578369140625
      ],
      "min": [
        -21.084800720214844,
        -12.12353515625,
        18.94483184814453
      ],
      "type": "VEC3"
    },
    {
      "bufferView": 2,
      "byteOffset": 7272,
      "componentType": 5126,
      "count": 202,
      "max": [
        0.9847275614738464,
        0.9887964129447937,
        0.9974935054779053
      ],
      "min": [
        -0.9963067770004272,
        -0.996048629283905,
        -0.9977534413337708
      ],
      "type": "VEC3"
    },
    {
      "bufferView": 1,
      "byteOffset": 1616,
      "componentType": 5126,
      "count": 202,
      "max": [
        0.9667999744415283,
        0.9483000040054321
      ],
      "min": [
        0.04879998788237572,
        0.053599998354911804
      ],
      "type": "VEC2"
    },
    {
      "bufferView": 0,
      "byteOffset": 4272,
      "componentType": 5125,
      "count": 1068,
      "type": "SCALAR"
    },
    {
      "bufferView": 2,
      "byteOffset": 9696,
      "componentType": 5126,
      "count": 202,
      "max": [
        19.039356231689453,
        16.83588409423828,
        21.382640838623047
      ],
      "min": [
        9.338074684143066,
        7.809688091278076,
        18.018049240112305
      ],
      "type": "VEC3"
    },
    {
      "bufferView": 2,
      "byteOffset": 12120,
      "componentType": 5126,
      "count": 202,
      "max": [
        0.9961522817611694,
        0.9934744834899902,
        0.997492790222168
      ],
      "min": [
        -0.9830188751220703,
        -0.9957926273345947,
        -0.997753918170929
      ],
      "type": "VEC3"
    },
    {
      "bufferView": 1,
      "byteOffset": 3232,
      "componentType": 5126,
      "count": 202,
      "max": [
        0.9588000178337097,
        0.9483000040054321
      ],
      "min": [
        0.040800001472234726,
        0.053599998354911804
      ],
      "type": "VEC2"
    },
    {
      "bufferView": 0,
      "byteOffset": 8544,
      "componentType": 5125,
      "count": 1068,
      "type": "SCALAR"
    },
    {
      "bufferView": 2,
      "byteOffset": 14544,
      "componentType": 5126,
      "count": 65532,
      "max": [
        18.203466415405273,
        24.235544204711914,
        24.235544204711914
      ],
      "min": [
        -24.235544204711914,
        -24.235544204711914,
        -24.235544204711914
      ],
      "type": "VEC3"
    },
    {
      "bufferView": 2,
      "byteOffset": 800928,
      "componentType": 5126,
      "count": 65532,
      "max": [
        0.738774836063385,
        1.0,
        1.0
      ],
      "min": [
        -1.0,
        -1.0,
        -1.0
      ],
      "type": "VEC3"
    },
    {
      "bufferView": 1,
      "byteOffset": 4848,
      "componentType": 5126,
      "count": 65532,
      "max": [
        0.9999656677246094,
        0.9158931374549866
      ],
      "min": [
        0.0,
        0.0
      ],
      "type": "VEC2"
    },
    {
      "bufferView": 0,
      "byteOffset": 12816,
      "componentType": 5125,
      "count": 378987,
      "type": "SCALAR"
    },
    {
      "bufferView": 2,
      "byteOffset": 1587312,
      "componentType": 5126,
      "count": 37167,
      "max": [
        24.235544204711914,
        24.235544204711914,
        17.597644805908203
      ],
      "min": [
        -19.608816146850586,
        -23.64775276184082,
        -24.232280731201172
      ],
      "type": "VEC3"
    },
    {
      "bufferView": 2,
      "byteOffset": 2033316,
      "componentType": 5126,
      "count": 37167,
      "max": [
        1.0,
        1.0,
        0.7071067690849304
      ],
      "min": [
        -0.8127080798149109,
        -0.9794352650642395,
        -0.9998891353607178
      ],
      "type": "VEC3"
    },
    {
      "bufferView": 1,
      "byteOffset": 529104,
      "componentType": 5126,
      "count": 37167,
      "max": [
        0.9980201721191406,
        0.9368603229522705
      ],
      "min": [
        -1.2224030494689941,
        -0.7970134019851685
      ],
      "type": "VEC2"
    },
    {
      "bufferView": 0,
      "byteOffset": 1528764,
      "componentType": 5125,
      "count": 210837,
      "type": "SCALAR"
    }
  ],
  "asset": {
    "extras": {
      "author": "gurami.mamaladze (https://sketchfab.com/gurami.mamaladze)",
      "license": "CC-BY-4.0 (http://creativecommons.org/licenses/by/4.0/)",
      "source": "https://sketchfab.com/3d-models/3d-in-love-emoji-e7f7dc6b343e4e8cb610759f2bd8cca4",
      "title": "3D In Love Emoji"
    },
    "generator": "Sketchfab-13.68.0",
    "version": "2.0"
  },
  "bufferViews": [
    {
      "buffer": 0,
      "byteLength": 2372112,
      "name": "floatBufferViews",
      "target": 34963
    },
    {
      "buffer": 0,
      "byteLength": 826440,
      "byteOffset": 2372112,
      "byteStride": 8,
      "name": "floatBufferViews",
      "target": 34962
    },
    {
      "buffer": 0,
      "byteLength": 2479320,
      "byteOffset": 3198552,
      "byteStride": 12,
      "name": "floatBufferViews",
      "target": 34962
    }
  ],
  "buffers": [
    {
      "byteLength": 5677872,
      "uri": "scene.bin"
    }
  ],
  "images": [
    {
      "uri": "textures/Material.002_baseColor.png"
    },
    {
      "uri": "textures/Material.002_metallicRoughness.png"
    }
  ],
  "materials": [
    {
      "doubleSided": true,
      "name": "Default_OBJ",
      "pbrMetallicRoughness": {
        "baseColorFactor": [
          1.0,
          0.0,
          0.00047683753593035183,
          1.0
        ],
        "metallicFactor": 0.0,
        "roughnessFactor": 0.9583314353386967
      }
    },
    {
      "alphaMode": "BLEND",
      "doubleSided": true,
      "name": "Material.002",
      "pbrMetallicRoughness": {
        "baseColorTexture": {
          "index": 0
        },
        "metallicFactor": 0.6462084040153464,
        "metallicRoughnessTexture": {
          "index": 1
        },
        "roughnessFactor": 0.5592397995879607
      }
    }
  ],
  "meshes": [
    {
      "name": "mesh_0_Default OBJ_0",
      "primitives": [
        {
          "attributes": {
            "NORMAL": 1,
            "POSITION": 0,
            "TEXCOORD_0": 2
          },
          "indices": 3,
          "material": 0,
          "mode": 4
        }
      ]
    },
    {
      "name": "mesh_1_Default OBJ_0",
      "primitives": [
        {
          "attributes": {
            "NORMAL": 5,
            "POSITION": 4,
            "TEXCOORD_0": 6
          },
          "indices": 7,
          "material": 0,
          "mode": 4
        }
      ]
    },
    {
      "name": "mesh_2_Default OBJ_0",
      "primitives": [
        {
          "attributes": {
            "NORMAL": 9,
            "POSITION": 8,
            "TEXCOORD_0": 10
          },
          "indices": 11,
          "material": 0,
          "mode": 4
        }
      ]
    },
    {
      "name": "mesh_3_Material.002_0",
      "primitives": [
        {
          "attributes": {
            "NORMAL": 13,
            "POSITION": 12,
            "TEXCOORD_0": 14
          },
          "indices": 15,
          "material": 1,
          "mode": 4
        }
      ]
    },
    {
      "name": "mesh_3_Material.002_0",
      "primitives": [
        {
          "attributes": {
            "NORMAL": 17,
            "POSITION": 16,
            "TEXCOORD_0": 18
          },
          "indices": 19,
          "material": 1,
          "mode": 4
        }
      ]
    }
  ],
  "nodes": [
    {
      "children": [
        1
      ],
      "matrix": [
        1.0,
        0.0,
        0.0,
        0.0,
        0.0,
        2.220446049250313e-16,
        -1.0,
        0.0,
        0.0,
        1.0,
        2.220446049250313e-16,
        0.0,
        0.0,
        0.0,
        0.0,
        1.0
      ],
      "name": "Sketchfab_model"
    },
    {
      "children": [
        2
      ],
      "matrix": [
        1.0,
        0.0,
        0.0,
        0.0,
        0.0,
        0.0,
        1.0,
        0.0,
        0.0,
        -1.0,
        0.0,
        0.0,
        0.0,
        0.0,
        0.0,
        1.0
      ],
      "name": "8247e8dc592f4c7284be80d01e27c860.fbx"
    },
    {
      "children": [
        3,
        6,
        8,
        10,
        12,
        14
      ],
      "name": "RootNode"
    },
    {
      "children": [
        4
      ],
      "matrix": [
        -0.29086463958324527,
        -0.055189030470401745,
        -0.955171153435784,
        0.0,
        0.5663930608510775,
        0.794672319495987,
        -0.21839113085775655,
        0.0,
        0.7711009167530422,
        -0.6045246068287409,
        -0.1998834058174268,
        0.0,
        4.076245307922363,
        5.903861999511719,
        -1.0054539442062378,
        1.0
      ],
      "name": "Light"
    },
    {
      "children": [
        5
      ],
      "matrix": [
        1.0,
        0.0,
        0.0,
        0.0,
        0.0,
        2.220446049250313e-16,
        1.0,
        0.0,
        0.0,
        -1.0,
        2.220446049250313e-16,
        0.0,
        0.0,
        0.0,
        0.0,
        1.0
      ],
      "name": "Object_4"
    },
    {
      "name": "Object_5"
    },
    {
      "children": [
        7
      ],
      "matrix": [
        -0.6515580886809003,
        -0.44527136500527453,
        -0.6141704562835514,
        0.0,
        -0.3240134686089782,
        0.8953956599577143,
        -0.30542083145860877,
        0.0,
        0.6859207524392246,
        8.666909498411535e-08,
        -0.7276762476357193,
        0.0,
        7.358891487121582,
        4.958309173583984,
        6.925790786743164,
        1.0
      ],
      "name": "Camera"
    },
    {
      "name": "Object_7"
    },
    {
      "children": [
        9
      ],
      "matrix": [
        1.0,
        0.0,
        0.0,
        0.0,
        0.0,
        0.9999999999999867,
        1.6292068494294585e-07,
        0.0,
        0.0,
        -1.6292068494294585e-07,
        0.9999999999999867,
        0.0,
        0.0,
        0.0,
        0.0,
        1.0
      ],
      "name": "mesh_0"
    },
    {
      "mesh": 0,
      "name": "mesh_0_Default OBJ_0"
    },
    {
      "children": [
        11
      ],
      "matrix": [
        1.0,
        0.0,
        0.0,
        0.0,
        0.0,
        0.9999999999999867,
        1.6292068494294585e-07,
        0.0,
        0.0,
        -1.6292068494294585e-07,
        0.9999999999999867,
        0.0,
        0.0,
        0.0,
        0.0,
        1.0
      ],
      "name": "mesh_1"
    },
    {
      "mesh": 1,
      "name": "mesh_1_Default OBJ_0"
    },
    {
      "children": [
        13
      ],
      "matrix": [
        1.0,
        0.0,
        0.0,
        0.0,
        0.0,
        0.9999999999999867,
        1.6292068494294585e-07,
        0.0,
        0.0,
        -1.6292068494294585e-07,
        0.9999999999999867,
        0.0,
        0.0,
        0.0,
        0.0,
        1.0
      ],
      "name": "mesh_2"
    },
    {
      "mesh": 2,
      "name": "mesh_2_Default OBJ_0"
    },
    {
      "children": [
        15,
        16
      ],
      "matrix": [
        1.0,
        0.0,
        0.0,
        0.0,
        0.0,
        0.9999999999999867,
        1.6292068494294585e-07,
        0.0,
        0.0,
        -1.6292068494294585e-07,
        0.9999999999999867,
        0.0,
        0.0,
        0.0,
        0.0,
        1.0
      ],
      "name": "mesh_3"
    },
    {
      "mesh": 3,
      "name": "mesh_3_Material.002_0"
    },
    {
      "mesh": 4,
      "name": "mesh_3_Material.002_0"
    }
  ],
  "samplers": [
    {
      "magFilter": 9729,
      "minFilter": 9987,
      "wrapS": 10497,
      "wrapT": 10497
    }
  ],
  "scene": 0,
  "scenes": [
    {
      "name": "Sketchfab_Scene",
      "nodes": [
        0
      ]
    }
  ],
  "textures": [
    {
      "sampler": 0,
      "source": 0
    },
    {
      "sampler": 0,
      "source": 1
    }
  ]
}
